<?xml version="1.0" encoding="UTF-8" standalone="no"?>
<svg
   xmlns:dc="http://purl.org/dc/elements/1.1/"
   xmlns:cc="http://creativecommons.org/ns#"
   xmlns:rdf="http://www.w3.org/1999/02/22-rdf-syntax-ns#"
   xmlns:svg="http://www.w3.org/2000/svg"
   xmlns="http://www.w3.org/2000/svg"
   xmlns:sodipodi="http://sodipodi.sourceforge.net/DTD/sodipodi-0.dtd"
   xmlns:inkscape="http://www.inkscape.org/namespaces/inkscape"
   inkscape:version="1.0 (1.0+r73+1)"
   sodipodi:docname="logo1.svg"
   inkscape:export-ydpi="96"
   inkscape:export-xdpi="96"
   inkscape:export-filename="/home/max/растровый.png"
   id="svg8"
   version="1.1"
   viewBox="0 0 264.58333 264.58333"
   height="1000"
   width="1000">
  <defs
     id="defs2" />
  <sodipodi:namedview
     units="px"
     inkscape:window-maximized="1"
     inkscape:window-y="27"
     inkscape:window-x="1366"
     inkscape:window-height="1016"
     inkscape:window-width="1860"
     inkscape:guide-bbox="true"
     showguides="true"
     showgrid="false"
     inkscape:document-rotation="0"
     inkscape:current-layer="layer2"
     inkscape:document-units="px"
     inkscape:cy="270.60691"
     inkscape:cx="309.6731"
     inkscape:zoom="0.5"
     inkscape:pageshadow="2"
     inkscape:pageopacity="0.0"
     borderopacity="1.0"
     bordercolor="#666666"
     pagecolor="#ffffff"
     id="base" />
  <metadata
     id="metadata5">
    <rdf:RDF>
      <cc:Work
         rdf:about="">
        <dc:format>image/svg+xml</dc:format>
        <dc:type
           rdf:resource="http://purl.org/dc/dcmitype/StillImage" />
        <dc:title></dc:title>
      </cc:Work>
    </rdf:RDF>
  </metadata>
  <g
     id="layer1"
     inkscape:groupmode="layer"
     inkscape:label="Слой 1" />
  <g
     style="display:inline"
     inkscape:label="Слой 2"
     id="layer2"
     inkscape:groupmode="layer">
    <g
       transform="matrix(-0.33769732,-0.33769732,0.33769732,-0.33769732,157.15895,276.5452)"
       id="g193">
      <path
         d="m 495,88 v 120 c 0,6.88 -4.68,12.88 -11.36,14.55 L 271,275.71 V 328 c 0,8.28 -6.72,15 -15,15 -8.28,0 -15,-6.72 -15,-15 v -64 c 0,-6.88 4.68,-12.88 11.36,-14.55 9.321,-2.331 202.996,-50.749 212.64,-53.16 V 103 h -49 c -8.28,0 -15,-6.72 -15,-15 0,-8.28 6.72,-15 15,-15 h 64 c 8.28,0 15,6.72 15,15 z"
         fill="#e0eaef"
         id="path179" />
      <path
         d="m 495,88 v 120 c 0,6.88 -4.68,12.88 -11.36,14.55 L 271,275.71 V 328 c 0,8.28 -6.72,15 -15,15 V 248.54 L 465,196.29 V 103 h -49 c -8.28,0 -15,-6.72 -15,-15 0,-8.28 6.72,-15 15,-15 h 64 c 8.28,0 15,6.72 15,15 z"
         fill="#cce0e5"
         id="path181" />
      <path
         d="M 96,73 H 47 V 56 C 47,47.716 40.284,41 32,41 23.716,41 17,47.716 17,56 v 72 c 0,8.284 6.716,15 15,15 8.284,0 15,-6.716 15,-15 v -25 h 49 c 8.284,0 15,-6.716 15,-15 0,-8.284 -6.716,-15 -15,-15 z"
         fill="#e0eaef"
         id="path183" />
      <path
         d="m 311,456 c 0,30.448 -24.636,56 -55,56 -30.328,0 -55,-25.52 -55,-56 0,-0.709 -0.475,7.147 8.03,-128.94 0.49,-7.9 7.05,-14.06 14.97,-14.06 h 64 c 7.92,0 14.48,6.16 14.97,14.06 C 311.556,464.436 311,455.292 311,456 Z"
         fill="#0a789b"
         id="path185" />
      <path
         d="M 416,0 H 96 C 87.72,0 81,6.72 81,15 v 145 c 0,8.28 6.72,15 15,15 h 320 c 8.28,0 15,-6.72 15,-15 V 15 C 431,6.72 424.28,0 416,0 Z"
         fill="#9d9bdf"
         id="path187" />
      <path
         d="m 431,15 v 145 c 0,8.28 -6.72,15 -15,15 H 256 V 0 h 160 c 8.28,0 15,6.72 15,15 z"
         fill="#5e69e2"
         id="path189" />
      <path
         d="m 311,456 c 0,30.448 -24.636,56 -55,56 V 313 h 32 c 7.92,0 14.48,6.16 14.97,14.06 C 311.556,464.436 311,455.292 311,456 Z"
         fill="#08475e"
         id="path191" />
    </g>
  </g>
</svg>
