<?xml version="1.0" encoding="UTF-8" standalone="no"?>
<svg
   xmlns:dc="http://purl.org/dc/elements/1.1/"
   xmlns:cc="http://creativecommons.org/ns#"
   xmlns:rdf="http://www.w3.org/1999/02/22-rdf-syntax-ns#"
   xmlns:svg="http://www.w3.org/2000/svg"
   xmlns="http://www.w3.org/2000/svg"
   xmlns:sodipodi="http://sodipodi.sourceforge.net/DTD/sodipodi-0.dtd"
   xmlns:inkscape="http://www.inkscape.org/namespaces/inkscape"
   sodipodi:docname="рисунок.svg"
   inkscape:version="1.0 (1.0+r73+1)"
   inkscape:export-ydpi="96"
   inkscape:export-xdpi="96"
   inkscape:export-filename="/home/max/растровый.png"
   id="svg8"
   version="1.1"
   viewBox="0 0 264.58333 264.58333"
   height="1000"
   width="1000">
  <defs
     id="defs2" />
  <sodipodi:namedview
     units="px"
     inkscape:window-maximized="1"
     inkscape:window-y="27"
     inkscape:window-x="1366"
     inkscape:window-height="1016"
     inkscape:window-width="1860"
     inkscape:guide-bbox="true"
     showguides="true"
     showgrid="false"
     inkscape:document-rotation="0"
     inkscape:current-layer="layer2"
     inkscape:document-units="px"
     inkscape:cy="678.16081"
     inkscape:cx="165.71597"
     inkscape:zoom="0.5"
     inkscape:pageshadow="2"
     inkscape:pageopacity="0.0"
     borderopacity="1.0"
     bordercolor="#666666"
     pagecolor="#ffffff"
     id="base" />
  <metadata
     id="metadata5">
    <rdf:RDF>
      <cc:Work
         rdf:about="">
        <dc:format>image/svg+xml</dc:format>
        <dc:type
           rdf:resource="http://purl.org/dc/dcmitype/StillImage" />
        <dc:title></dc:title>
      </cc:Work>
    </rdf:RDF>
  </metadata>
  <g
     id="layer1"
     inkscape:groupmode="layer"
     inkscape:label="Слой 1" />
  <g
     style="display:inline"
     inkscape:label="Слой 2"
     id="layer2"
     inkscape:groupmode="layer">
    <g
       transform="matrix(1.2916074,0,0,1.2916074,314.96274,-89.604737)"
       id="g141">
      <g
         id="g56"
         transform="matrix(0.26468673,0,0,0.26468673,-231.6683,126.71303)">
        <path
           id="path48"
           fill="#dfe7f4"
           d="M 303.482,248.72642 271.9778,217.22221 151.5,337.4 183.45,369.35 215.4,401.3 299.7,317 Z"
           sodipodi:nodetypes="ccccccc" />
        <path
           id="path50"
           transform="matrix(0.707,-0.707,0.707,0.707,-171.906,271.333)"
           fill="#c7cfe1"
           d="m 181.966,320.583 170.22253,-0.36983 v 45.39715 L 181.966,365.767 Z"
           sodipodi:nodetypes="ccccc" />
        <path
           id="path52"
           fill="#404a80"
           d="m 210.328,342.472 c -28.301,-28.33 -77.754,-28.33 -106.055,0 -42.246,42.231 -84.346,81.899 -84.404,81.958 L 0,441.276 l 25.143,8.203 c 5.852,2.071 31.106,10.589 61.864,16.315 16.443,3.06 34.391,5.007 51.94,5.007 27.817,0 54.404,-5.296 71.382,-22.273 14.165,-14.165 21.973,-32.988 21.973,-53.027 0,-20.039 -7.809,-38.878 -21.974,-53.029 z" />
        <path
           id="path54"
           fill="#283366"
           d="m 210.328,448.527 c 14.165,-14.165 21.973,-32.988 21.973,-53.027 0,-20.039 -7.808,-38.877 -21.973,-53.027 L 87.007,465.794 c 16.443,3.06 34.391,5.007 51.94,5.007 27.817,-10e-4 54.404,-5.297 71.381,-22.274 z" />
      </g>
      <g
         transform="matrix(0.18708867,0.18708867,-0.18708867,0.18708867,-114.85835,60.275923)"
         id="g26">
        <path
           d="m 256,0 c -1.695,0 -3.416,0.024 -5.113,0.071 C 204.016,1.373 160.074,20.714 127.156,54.533 94.248,88.341 76.08,132.787 76,179.684 75.911,231.682 98.31,281.167 137.452,315.451 155.595,331.341 166,354.184 166,378.121 L 211.42891,451 h 89.97912 L 346,378.122 C 358.47185,357.73888 356.472,331.325 374.73,315.29 413.668,281.094 436,231.783 436,180 436,80.748 355.252,0 256,0 Z"
           fill="#ffea98"
           id="path10"
           sodipodi:nodetypes="sccccsccscss" />
        <path
           d="m 256,0 v 451 h 45.40803 L 346,378.122 C 358.47185,357.73888 356.472,331.325 374.73,315.29 413.668,281.094 436,231.783 436,180 436,80.748 355.252,0 256,0 Z"
           fill="#ffd845"
           id="path12"
           sodipodi:nodetypes="cccscsc" />
        <path
           d="m 293.5,180 v 23.101 L 256,235.244 218.5,203.101 V 180 h -30 v 36.899 l 52.5,45 V 380 h 30 V 261.899 l 52.5,-45 V 180 Z"
           fill="#ffb454"
           id="path18" />
        <path
           d="m 293.5,180 v 23.101 L 256,235.244 V 380 h 15 V 261.899 l 52.5,-45 V 180 Z"
           fill="#ff8e00"
           id="path20" />
        <path
           d="m 166,380 h 180 l -44.59197,71 h -89.97912 l -44.59197,-44.45377 z"
           fill="#f4f4f6"
           id="path22"
           sodipodi:nodetypes="cccccc" />
        <path
           d="m 256,380 h 90 v 26.08853 L 301.40803,451 H 256 Z"
           fill="#d0d5f4"
           id="path24"
           sodipodi:nodetypes="cccccc" />
      </g>
    </g>
  </g>
</svg>
